<?xml version="1.0" standalone="no"?>
        <!DOCTYPE svg PUBLIC "-//W3C//DTD SVG 1.1//EN" 
        "http://www.w3.org/Graphics/SVG/1.1/DTD/svg11.dtd"> <svg xmlns="http://www.w3.org/2000/svg" viewBox="0 0 256 126" id="IconChangeColor" height="21" width="20"><rect width="24" height="24" fill="none"></rect><path d="M40,76H216a8,8,0,0,0,0-16H40a8,8,0,0,0,0,16Z" id="mainIconPathAttribute" fill="#737373"></path><path d="M40,116H168a8,8,0,0,0,0-16H40a8,8,0,0,0,0,16Z" id="mainIconPathAttribute" fill="#737373"></path><path d="M216,140H40a8,8,0,0,0,0,16H216a8,8,0,0,0,0-16Z" id="mainIconPathAttribute" fill="#737373"></path><path d="M168,180H40a8,8,0,0,0,0,16H168a8,8,0,0,0,0-16Z" id="mainIconPathAttribute" fill="#737373"></path></svg> 
