<svg fill="#5e6c84" height="18" width="18" version="1.1" id="Capa_1" xmlns="http://www.w3.org/2000/svg" xmlns:xlink="http://www.w3.org/1999/xlink" viewBox="0 0 490.885 490.885" xml:space="preserve" transform="rotate(180)"><g id="SVGRepo_bgCarrier" stroke-width="0"></g><g id="SVGRepo_tracerCarrier" stroke-linecap="round" stroke-linejoin="round"></g><g id="SVGRepo_iconCarrier"> <g> <path d="M221.586,490.885c-13.836,0-26.837-5.375-36.611-15.16L15.63,306.392c-20.179-20.189-20.179-53.023,0-73.212L197.69,51.13 c45.815-47.735,156.567-85.98,242.547,0c66.869,66.869,66.869,175.675,0,242.546l-182.05,182.05 C248.414,485.51,235.412,490.885,221.586,490.885z M212.433,65.872l-182.06,182.05c-12.045,12.055-12.045,31.674,0,43.729 l169.344,169.334c11.688,11.687,32.029,11.708,43.728,0l182.05-182.051c58.735-58.745,58.741-154.321,0-213.061 C384.505,24.883,287.162-8.858,212.433,65.872z"></path> <path d="M367.363,73.538c-24.853,0-45.001,20.148-45.001,45.001c0,24.854,20.148,45.001,45.001,45.001 c24.853,0,45.001-20.147,45.001-45.001C412.363,93.687,392.216,73.538,367.363,73.538z M367.363,142.69 c-13.338,0-24.15-10.813-24.15-24.15c0-13.337,10.812-24.149,24.15-24.149c13.337,0,24.15,10.813,24.15,24.149 C391.512,131.877,380.7,142.69,367.363,142.69z"></path> </g></g></svg>
